<svg xmlns="http://www.w3.org/2000/svg" width="183" height="22" viewBox="0 0 183 22" fill="none">
  <path d="M7.14573 10.0349C7.07942 9.95036 6.99185 9.88392 6.89148 9.842C6.79111 9.80008 6.68134 9.78409 6.57277 9.79558C6.46421 9.80707 6.36052 9.84565 6.27174 9.90759C6.18295 9.96954 6.11207 10.0527 6.06594 10.1492L0.59451 20.8065C0.544666 20.9036 0.521132 21.0115 0.526143 21.12C0.531154 21.2285 0.564544 21.3339 0.623142 21.4263C0.681739 21.5187 0.7636 21.5949 0.860952 21.6478C0.958304 21.7007 1.06792 21.7284 1.17938 21.7285H8.79807C8.92009 21.7312 9.04031 21.6994 9.14414 21.6369C9.24796 21.5744 9.33092 21.4838 9.38294 21.3763C11.0264 18.0678 10.0304 13.0374 7.14573 10.0349Z" fill="url(#paint0_linear_10_1266)"/>
  <path d="M11.1588 0.341552C9.79543 2.38517 9.00094 4.739 8.85325 7.17203C8.70556 9.60507 9.20975 12.0337 10.3163 14.2196L13.9894 21.3762C14.0437 21.4821 14.1272 21.5711 14.2305 21.6333C14.3338 21.6955 14.4528 21.7284 14.5743 21.7285H22.1916C22.303 21.7284 22.4126 21.7007 22.51 21.6478C22.6074 21.5949 22.6892 21.5187 22.7478 21.4263C22.8064 21.3339 22.8398 21.2285 22.8448 21.12C22.8498 21.0115 22.8263 20.9036 22.7764 20.8065C22.7764 20.8065 12.5286 0.837031 12.271 0.337553C12.2201 0.235884 12.1408 0.150256 12.0422 0.0904927C11.9436 0.0307294 11.8297 -0.000749033 11.7136 -0.000331595C11.5975 8.58427e-05 11.4838 0.0323822 11.3857 0.0928528C11.2876 0.153323 11.2089 0.239519 11.1588 0.341552Z" fill="#2684FF"/>
  <path d="M100.506 8.88666C100.506 11.5257 101.763 13.6209 106.678 14.5459C109.61 15.1456 110.225 15.6068 110.225 16.5591C110.225 17.4841 109.609 18.0828 107.543 18.0828C105.047 18.0391 102.601 17.3942 100.422 16.2056V20.5039C101.902 21.2113 103.857 22.0004 107.488 22.0004C112.626 22.0004 114.665 19.7679 114.665 16.4501M114.665 16.4501C114.665 13.3213 112.962 11.8519 108.158 10.8456C105.505 10.2741 104.863 9.70302 104.863 8.88666C104.863 7.85372 105.812 7.41755 107.572 7.41755C109.694 7.41755 111.789 8.04332 113.771 8.91399V4.80554C111.87 3.96252 109.8 3.54425 107.711 3.58134C102.963 3.58134 100.506 5.59458 100.506 8.88666" fill="#0052CC"/>
  <path d="M166.524 3.85321V21.7284H170.433V8.0976L172.081 11.7159L177.611 21.7284H182.526V3.85321H178.616V15.3892L177.136 12.0424L172.696 3.85321H166.524Z" fill="#0052CC"/>
  <path d="M141.656 3.85321H137.383V21.7284H141.656V3.85321Z" fill="#0052CC"/>
  <path d="M132.453 16.4501C132.453 13.3213 130.749 11.8519 125.946 10.8456C123.293 10.2741 122.65 9.70302 122.65 8.88666C122.65 7.85372 123.6 7.41755 125.359 7.41755C127.482 7.41755 129.576 8.04332 131.559 8.91399V4.80554C129.658 3.96252 127.587 3.54425 125.499 3.58134C120.751 3.58134 118.293 5.59458 118.293 8.88666C118.293 11.5257 119.55 13.6209 124.465 14.5459C127.398 15.1456 128.012 15.6068 128.012 16.5591C128.012 17.4841 127.397 18.0828 125.331 18.0828C122.835 18.0391 120.388 17.3942 118.21 16.2056V20.5039C119.69 21.2113 121.645 22.0004 125.275 22.0004C130.414 22.0004 132.453 19.7679 132.453 16.4501Z" fill="#0052CC"/>
  <path d="M67.3123 3.85321V21.7284H76.095L77.4778 17.8649H71.613V3.85321H67.3123Z" fill="#0052CC"/>
  <path d="M49.9605 3.85321V7.71641H54.7082V21.7284H59.0089V7.71641H64.0918V3.85321H49.9605Z" fill="#0052CC"/>
  <path d="M43.7243 3.85321H38.088L31.6897 21.7284H36.5759L37.483 18.7179C39.7169 19.357 42.0924 19.357 44.3263 18.7179L45.2334 21.7284H50.1206L43.7243 3.85321ZM40.906 15.4945C40.1101 15.4944 39.3182 15.3835 38.5546 15.1649L40.906 7.36421L43.2575 15.1676C42.4937 15.3852 41.7018 15.4953 40.906 15.4945Z" fill="#0052CC"/>
  <path d="M91.2359 3.85321H85.5999L79.2016 21.7284H84.0889L84.9959 18.7179C87.2299 19.357 89.6053 19.357 91.8392 18.7179L92.7463 21.7284H97.6335L91.2359 3.85321ZM88.4179 15.4945C87.622 15.4944 86.8301 15.3835 86.0665 15.1649L88.4179 7.36421L90.7694 15.1676C90.0055 15.3852 89.2137 15.4953 88.4179 15.4945Z" fill="#0052CC"/>
  <path d="M157.054 3.85321H151.418L145.019 21.7284H149.906L150.814 18.7179C153.047 19.357 155.423 19.357 157.657 18.7179L158.564 21.7284H163.452L157.054 3.85321ZM154.234 15.4945C153.438 15.4944 152.646 15.3835 151.882 15.1649L154.234 7.36421L156.585 15.1676C155.821 15.3852 155.03 15.4953 154.234 15.4945Z" fill="#0052CC"/>
  <defs>
    <linearGradient id="paint0_linear_10_1266" x1="10.1443" y1="11.6796" x2="4.59352" y2="21.5485" gradientUnits="userSpaceOnUse">
      <stop stop-color="#0052CC"/>
      <stop offset="0.923" stop-color="#2684FF"/>
    </linearGradient>
  </defs>
</svg>