<svg xmlns="http://www.w3.org/2000/svg" width="159" height="22" viewBox="0 0 159 22" fill="none">
<path d="M68.6184 14.0048H79.0423L73.5363 5.33815L63.4133 20.9915H58.8101L71.1218 2.21149C71.3902 1.83674 71.7468 1.53014 72.1618 1.31737C72.5768 1.1046 73.038 0.991863 73.5069 0.988598C73.9758 0.985334 74.4386 1.09164 74.8567 1.29861C75.2747 1.50558 75.6358 1.80718 75.9097 2.17815L88.2556 20.9915H83.6524L81.4841 17.4915H70.9371L68.6389 14.0048M116.47 17.4915V1.17815H112.557V19.0982C112.557 19.3472 112.608 19.5938 112.708 19.8229C112.808 20.0521 112.954 20.2592 113.139 20.4315C113.324 20.6161 113.545 20.7627 113.79 20.8623C114.034 20.9619 114.297 21.0127 114.562 21.0115H132.345L134.664 17.5115H116.449M51.7856 14.5782C53.6087 14.5782 55.3571 13.8723 56.6463 12.6158C57.9354 11.3593 58.6596 9.6551 58.6596 7.87815C58.6596 6.1012 57.9354 4.39703 56.6463 3.14054C55.3571 1.88405 53.6087 1.17815 51.7856 1.17815H34.686V20.9915H38.5916V4.68482H51.5462C52.4188 4.68482 53.2556 5.02267 53.8726 5.62403C54.4895 6.2254 54.8362 7.04103 54.8362 7.89149C54.8362 8.74195 54.4895 9.55758 53.8726 10.1589C53.2556 10.7603 52.4188 11.0982 51.5462 11.0982H40.5272L52.196 20.9915H57.8662L50.0278 14.5782H51.7856ZM10.6646 20.9915H22.4769C25.1261 20.9245 27.6436 19.8517 29.4929 18.0018C31.3423 16.1518 32.3773 13.6711 32.3773 11.0882C32.3773 8.50524 31.3423 6.02446 29.4929 4.17453C27.6436 2.3246 25.1261 1.25182 22.4769 1.18482H10.6646C9.30808 1.15051 7.95828 1.3813 6.69476 1.86356C5.43124 2.34583 4.27959 3.06981 3.30772 3.99281C2.33586 4.91582 1.56345 6.01915 1.03605 7.23776C0.50865 8.45636 0.236938 9.76556 0.236938 11.0882C0.236938 12.4107 0.50865 13.7199 1.03605 14.9385C1.56345 16.1572 2.33586 17.2605 3.30772 18.1835C4.27959 19.1065 5.43124 19.8305 6.69476 20.3127C7.95828 20.795 9.30808 21.0258 10.6646 20.9915ZM22.2102 17.5048H10.9245C9.21699 17.4511 7.59787 16.7523 6.40949 15.556C5.22112 14.3598 4.55668 12.7599 4.55668 11.0948C4.55668 9.4297 5.22112 7.82985 6.40949 6.6336C7.59787 5.43736 9.21699 4.7385 10.9245 4.68482H22.2102C23.0917 4.65711 23.9699 4.8024 24.7926 5.11206C25.6153 5.42172 26.3658 5.88943 26.9994 6.48739C27.633 7.08535 28.1368 7.80136 28.4809 8.59286C28.8249 9.38437 29.0022 10.2352 29.0022 11.0948C29.0022 11.9544 28.8249 12.8053 28.4809 13.5968C28.1368 14.3883 27.633 15.1043 26.9994 15.7022C26.3658 16.3002 25.6153 16.7679 24.7926 17.0776C23.9699 17.3872 23.0917 17.5325 22.2102 17.5048ZM96.4155 20.9915H108.474L110.759 17.5048H96.6822C95.8007 17.5325 94.9225 17.3872 94.0998 17.0776C93.2771 16.7679 92.5266 16.3002 91.893 15.7022C91.2594 15.1043 90.7556 14.3883 90.4116 13.5968C90.0675 12.8053 89.8902 11.9544 89.8902 11.0948C89.8902 10.2352 90.0675 9.38437 90.4116 8.59286C90.7556 7.80136 91.2594 7.08535 91.893 6.48739C92.5266 5.88943 93.2771 5.42172 94.0998 5.11206C94.9225 4.8024 95.8007 4.65711 96.6822 4.68482H108.139L110.451 1.18482H96.4155C95.059 1.15051 93.7092 1.3813 92.4457 1.86356C91.1821 2.34583 90.0305 3.06981 89.0586 3.99281C88.0868 4.91582 87.3144 6.01915 86.787 7.23776C86.2596 8.45636 85.9878 9.76556 85.9878 11.0882C85.9878 12.4107 86.2596 13.7199 86.787 14.9385C87.3144 16.1572 88.0868 17.2605 89.0586 18.1835C90.0305 19.1065 91.1821 19.8305 92.4457 20.3127C93.7092 20.795 95.059 21.0258 96.4155 20.9915ZM144.205 17.5048C142.772 17.5054 141.378 17.0498 140.235 16.2075C139.092 15.3652 138.262 14.1822 137.872 12.8382H154.575L156.873 9.34482H137.872C138.261 8.00025 139.09 6.81657 140.234 5.97409C141.377 5.13161 142.772 4.67652 144.205 4.67815H155.669L157.96 1.17815H143.939C141.289 1.24515 138.772 2.31794 136.923 4.16787C135.073 6.0178 134.038 8.49858 134.038 11.0815C134.038 13.6644 135.073 16.1452 136.923 17.9951C138.772 19.845 141.289 20.9178 143.939 20.9848H155.997L158.289 17.4982H144.199" fill="#C74634"/>
</svg>