<svg width="84" height="85" viewBox="0 0 84 85" fill="none" xmlns="http://www.w3.org/2000/svg">
<g id="carbon:play-filled">
<path id="Vector" d="M42 5.29102C34.7315 5.29102 27.6263 7.44637 21.5828 11.4845C15.5393 15.5226 10.8289 21.2622 8.04741 27.9774C5.26589 34.6926 4.53812 42.0818 5.95613 49.2106C7.37413 56.3394 10.8742 62.8876 16.0138 68.0272C21.1534 73.1668 27.7016 76.6669 34.8304 78.0849C41.9592 79.5029 49.3484 78.7751 56.0636 75.9936C62.7788 73.2121 68.5183 68.5017 72.5565 62.4582C76.5946 56.4147 78.75 49.3095 78.75 42.041C78.75 32.2943 74.8781 22.9468 67.9862 16.0548C61.0942 9.16288 51.7467 5.29102 42 5.29102ZM61.5484 44.3904L30.0484 60.1404C29.6481 60.3404 29.2033 60.4348 28.7562 60.4145C28.3092 60.3943 27.8747 60.2601 27.4942 60.0247C27.1136 59.7893 26.7995 59.4605 26.5817 59.0696C26.364 58.6786 26.2498 58.2385 26.25 57.791V26.291C26.2502 25.8437 26.3647 25.4039 26.5827 25.0134C26.8006 24.6228 27.1148 24.2943 27.4953 24.0593C27.8758 23.8242 28.3101 23.6902 28.7569 23.6701C29.2037 23.65 29.6483 23.7443 30.0484 23.9443L61.5484 39.6943C61.9838 39.9125 62.3499 40.2476 62.6058 40.662C62.8617 41.0765 62.9972 41.5539 62.9972 42.041C62.9972 42.5281 62.8617 43.0055 62.6058 43.42C62.3499 43.8344 61.9838 44.1695 61.5484 44.3878V44.3904Z" fill="#FCDF69"/>
</g>
</svg>
