<svg xmlns="http://www.w3.org/2000/svg" width="19" height="19" viewBox="0 0 19 19" fill="none">
<path d="M7.68875 9.23567H10.9348C10.9348 9.23567 12.7588 9.26493 12.7588 7.47318V4.50992C12.7588 4.50992 13.0355 2.71667 9.452 2.71667C6.0215 2.71667 6.23525 4.20392 6.23525 4.20392L6.23975 5.74517H9.512V6.20792H4.94C4.94 6.20792 2.74475 5.95893 2.74475 9.41943C2.74475 12.8799 4.661 12.7569 4.661 12.7569H5.804V11.1512C5.804 11.1512 5.74175 9.23567 7.68875 9.23567ZM7.64675 4.93068C7.49061 4.93068 7.34085 4.86865 7.23044 4.75823C7.12003 4.64782 7.058 4.49807 7.058 4.34192C7.058 4.18578 7.12003 4.03603 7.23044 3.92562C7.34085 3.8152 7.49061 3.75317 7.64675 3.75317C7.8029 3.75317 7.95265 3.8152 8.06306 3.92562C8.17347 4.03603 8.2355 4.18578 8.2355 4.34192C8.2355 4.49807 8.17347 4.64782 8.06306 4.75823C7.95265 4.86865 7.8029 4.93068 7.64675 4.93068Z" fill="#064EA4"/>
<path d="M14.339 6.11564H13.196V7.72139C13.196 7.72139 13.2582 9.63689 11.3112 9.63689H8.06522C8.06522 9.63689 6.24122 9.60689 6.24122 11.3994V14.3626C6.24122 14.3626 5.96447 16.1559 9.54797 16.1559C12.9777 16.1559 12.764 14.6686 12.764 14.6686L12.7595 13.1281H9.48722V12.6654H14.06C14.06 12.6654 16.2552 12.9144 16.2552 9.45389C16.2552 5.99339 14.339 6.11564 14.339 6.11564ZM11.3532 13.9426C11.5094 13.9426 11.6591 14.0047 11.7695 14.1151C11.8799 14.2255 11.942 14.3752 11.942 14.5314C11.942 14.6875 11.8799 14.8373 11.7695 14.9477C11.6591 15.0581 11.5094 15.1201 11.3532 15.1201C11.1971 15.1201 11.0473 15.0581 10.9369 14.9477C10.8265 14.8373 10.7645 14.6875 10.7645 14.5314C10.7645 14.3752 10.8265 14.2255 10.9369 14.1151C11.0473 14.0047 11.1971 13.9426 11.3532 13.9426Z" fill="#064EA4"/>
</svg>